<svg xmlns="http://www.w3.org/2000/svg" width="60" height="60" viewBox="0 0 60 60"><rect width="60" height="60" fill="#e50025" opacity="0"/><g transform="translate(-1)"><path d="M43.854,27.456a12.18,12.18,0,0,0-2.669.3,11.847,11.847,0,0,0-1.671.506L11.57,36.712a6.493,6.493,0,0,0-.659.2l-.065.02v0A5.7,5.7,0,0,0,7,42.179a5.954,5.954,0,0,0,6.2,5.673H43.854C50.01,47.852,55,43.286,55,37.654S50.01,27.456,43.854,27.456Z" fill="none" stroke="#111" stroke-linecap="round" stroke-linejoin="round" stroke-width="2"/><path d="M48.927,37.654a6.617,6.617,0,1,1-6.61-6.31A6.465,6.465,0,0,1,48.927,37.654Z" transform="translate(2)" fill="none" stroke="#bb1614" stroke-linecap="round" stroke-linejoin="round" stroke-width="2"/><line x1="4.748" y2="8.148" transform="translate(10.045 47.852)" fill="none" stroke="#111" stroke-linecap="round" stroke-linejoin="round" stroke-width="2"/><line x2="4.748" y2="8.148" transform="translate(45.383 47.852)" fill="none" stroke="#111" stroke-linecap="round" stroke-linejoin="round" stroke-width="2"/><line x1="7.33" y1="13.712" transform="translate(11.451 20.663)" fill="none" stroke="#111" stroke-linecap="round" stroke-linejoin="round" stroke-width="2"/><path d="M7,18.625H7a2.116,2.116,0,0,1,2.694-1.967l7.8,2.019a1.006,1.006,0,0,1-.277,1.986H9.135A2.088,2.088,0,0,1,7,18.625Z" fill="none" stroke="#111" stroke-linecap="round" stroke-linejoin="round" stroke-width="2"/><line y1="20.396" transform="translate(43.853 7.06)" fill="none" stroke="#111" stroke-linecap="round" stroke-linejoin="round" stroke-width="2"/><line x1="9.614" y2="6.289" transform="translate(39.077 4)" fill="none" stroke="#111" stroke-linecap="round" stroke-linejoin="round" stroke-width="2"/><line x1="6.61" y2="7.684" transform="translate(37.166 37.654)" fill="none" stroke="#bb1614" stroke-linecap="round" stroke-linejoin="round" stroke-width="2"/><line x2="5.13" transform="translate(14.417 42.091)" fill="none" stroke="#bb1614" stroke-linecap="round" stroke-linejoin="round" stroke-width="2"/></g></svg>