<svg xmlns="http://www.w3.org/2000/svg" width="80" height="80" viewBox="0 0 80 80"><rect width="80" height="80" fill="#e50025" opacity="0"/><path d="M16.122,53.838a10.62,10.62,0,0,1,9.793-5.848H44.832c4.419.063,8.089,4.178,8.547,8.288" fill="none" stroke="#050605" stroke-linecap="round" stroke-linejoin="round" stroke-width="2"/><path d="M30.659,60.4H43.28a12.11,12.11,0,0,0,6.405-1.815l15.386-9.6a7.5,7.5,0,0,1,9.719,2.049,6.45,6.45,0,0,1-1.712,9.178L55.162,71.388A12.112,12.112,0,0,1,49.044,73.2H16.124" fill="none" stroke="#050605" stroke-linecap="round" stroke-linejoin="round" stroke-width="2"/><rect width="12" height="28.01" rx="2.899" transform="translate(4 47.99)" fill="none" stroke="#050605" stroke-linecap="round" stroke-linejoin="round" stroke-width="2"/><ellipse cx="6.261" cy="5.816" rx="6.261" ry="5.816" transform="translate(33.739 17.087)" fill="none" stroke="#bb1614" stroke-linecap="round" stroke-linejoin="round" stroke-width="2"/><path d="M19.652,24.667V21.139a3.841,3.841,0,0,1,3.86-3.8h.008c3.679,0,5.183-2.566,3.341-5.7a3.776,3.776,0,0,1,1.419-5.2l3.513-1.988a3.428,3.428,0,0,1,4.634,1.2l.229.39c1.839,3.139,4.849,3.139,6.688,0l.228-.39a3.429,3.429,0,0,1,4.635-1.2L51.72,6.443a3.776,3.776,0,0,1,1.418,5.2c-1.842,3.135-.338,5.7,3.342,5.7h.007a3.842,3.842,0,0,1,3.861,3.8v3.527a3.842,3.842,0,0,1-3.861,3.8H56.48c-3.68,0-5.184,2.565-3.342,5.7a3.776,3.776,0,0,1-1.418,5.2l-3.513,1.987a3.427,3.427,0,0,1-4.635-1.2l-.228-.39c-1.839-3.139-4.849-3.139-6.688,0l-.229.39a3.426,3.426,0,0,1-4.634,1.2L28.28,39.364a3.776,3.776,0,0,1-1.419-5.2c1.842-3.136.338-5.7-3.342-5.7h-.007A3.842,3.842,0,0,1,19.652,24.667Z" fill="none" stroke="#bb1614" stroke-linecap="round" stroke-linejoin="round" stroke-width="2"/></svg>