<svg xmlns="http://www.w3.org/2000/svg" width="80" height="80" viewBox="0 0 80 80"><rect width="80" height="80" fill="#e50025" opacity="0"/><path d="M23.924,10H68.561A7.47,7.47,0,0,1,76,17.5V48.167a7.47,7.47,0,0,1-7.439,7.5H23.924a7.469,7.469,0,0,1-7.439-7.5V17.5A7.469,7.469,0,0,1,23.924,10Z" fill="none" stroke="#111" stroke-linecap="round" stroke-linejoin="round" stroke-width="2"/><line y2="14.333" transform="translate(46.242 55.667)" fill="none" stroke="#111" stroke-linecap="round" stroke-linejoin="round" stroke-width="2"/><line x2="59.516" transform="translate(16.484 47.24)" fill="none" stroke="#111" stroke-linecap="round" stroke-linejoin="round" stroke-width="2"/><line x2="26.782" transform="translate(32.851 70)" fill="none" stroke="#111" stroke-linecap="round" stroke-linejoin="round" stroke-width="2"/><path d="M4,49.042v-2.3a2.471,2.471,0,0,1,2.452-2.475h0C8.8,44.271,9.75,42.6,8.58,40.56a2.493,2.493,0,0,1,.9-3.384l2.232-1.294a2.149,2.149,0,0,1,2.945.783l.145.252c1.168,2.046,3.08,2.046,4.249,0l.145-.252a2.148,2.148,0,0,1,2.944-.783l2.232,1.294a2.492,2.492,0,0,1,.9,3.384C24.1,42.6,25.06,44.271,27.4,44.271h0a2.472,2.472,0,0,1,2.453,2.475v2.3A2.472,2.472,0,0,1,27.4,51.517h0c-2.338,0-3.294,1.671-2.124,3.712h0a2.491,2.491,0,0,1-.9,3.383l-2.232,1.294a2.148,2.148,0,0,1-2.944-.782l-.145-.253c-1.169-2.045-3.081-2.045-4.249,0l-.145.253a2.149,2.149,0,0,1-2.945.782L9.481,58.612a2.492,2.492,0,0,1-.9-3.383h0c1.17-2.041.215-3.712-2.123-3.712h0A2.471,2.471,0,0,1,4,49.042" fill="#fff"/><path d="M4,49.042v-2.3a2.471,2.471,0,0,1,2.452-2.475h0C8.8,44.271,9.75,42.6,8.58,40.56a2.493,2.493,0,0,1,.9-3.384l2.232-1.294a2.149,2.149,0,0,1,2.945.783l.145.252c1.168,2.046,3.08,2.046,4.249,0l.145-.252a2.148,2.148,0,0,1,2.944-.783l2.232,1.294a2.492,2.492,0,0,1,.9,3.384C24.1,42.6,25.06,44.271,27.4,44.271h0a2.472,2.472,0,0,1,2.453,2.475v2.3A2.472,2.472,0,0,1,27.4,51.517h0c-2.338,0-3.294,1.671-2.124,3.712h0a2.491,2.491,0,0,1-.9,3.383l-2.232,1.294a2.148,2.148,0,0,1-2.944-.782l-.145-.253c-1.169-2.045-3.081-2.045-4.249,0l-.145.253a2.149,2.149,0,0,1-2.945.782L9.481,58.612a2.492,2.492,0,0,1-.9-3.383h0c1.17-2.041.215-3.712-2.123-3.712h0A2.471,2.471,0,0,1,4,49.042Z" fill="none" stroke="#111" stroke-linecap="round" stroke-linejoin="round" stroke-width="2"/><path d="M12.95,47.894a3.886,3.886,0,0,0,3.978,3.787,3.792,3.792,0,1,0,0-7.574,3.886,3.886,0,0,0-3.978,3.787" fill="#fff"/><path d="M12.95,47.894a3.886,3.886,0,0,0,3.978,3.787,3.792,3.792,0,1,0,0-7.574A3.886,3.886,0,0,0,12.95,47.894Z" fill="none" stroke="#111" stroke-linecap="round" stroke-linejoin="round" stroke-width="2"/><path d="M42.454,23.968l1.6,4.244a.376.376,0,0,0,.714-.031l1.163-4.115a.375.375,0,0,1,.721-.006l1.24,4.094a.375.375,0,0,0,.716.011l1.418-4.2" fill="none" stroke="#bb1614" stroke-linecap="round" stroke-linejoin="round" stroke-width="2"/><line x2="9.029" transform="translate(41.728 25.925)" fill="none" stroke="#bb1614" stroke-linecap="round" stroke-linejoin="round" stroke-width="2"/><ellipse cx="7.9" cy="7.964" rx="7.9" ry="7.964" transform="translate(38.342 18.279)" fill="none" stroke="#bb1614" stroke-linecap="round" stroke-linejoin="round" stroke-width="2"/><line x2="13.753" transform="translate(39.48 38.192)" fill="none" stroke="#bb1614" stroke-linecap="round" stroke-linejoin="round" stroke-width="2"/><line x2="17.049" transform="translate(37.832 41.448)" fill="none" stroke="#bb1614" stroke-linecap="round" stroke-linejoin="round" stroke-width="2"/></svg>