<svg xmlns="http://www.w3.org/2000/svg" width="24" height="24" viewBox="0 0 24 24"><rect width="24" height="24" fill="#e50025" opacity="0"/><circle cx="2" cy="2" r="2" transform="translate(10 10)" fill="none" stroke="#111" stroke-linecap="round" stroke-linejoin="round" stroke-width="2"/><path d="M4,12.746V11.253A1.57,1.57,0,0,1,5.518,9.645h0c1.446,0,2.038-1.086,1.313-2.413a1.667,1.667,0,0,1,.558-2.2l1.381-.841A1.3,1.3,0,0,1,10.6,4.7l.09.165c.723,1.328,1.907,1.328,2.63,0L13.4,4.7a1.3,1.3,0,0,1,1.822-.509l1.381.841a1.667,1.667,0,0,1,.558,2.2c-.725,1.327-.133,2.413,1.313,2.413h0A1.57,1.57,0,0,1,20,11.253v1.493a1.57,1.57,0,0,1-1.518,1.608h0c-1.446,0-2.038,1.086-1.313,2.413a1.667,1.667,0,0,1-.558,2.2l-1.381.841A1.294,1.294,0,0,1,13.4,19.3l-.09-.164c-.723-1.329-1.907-1.329-2.63,0l-.09.164a1.294,1.294,0,0,1-1.822.509l-1.381-.841a1.667,1.667,0,0,1-.558-2.2c.725-1.327.133-2.413-1.313-2.413h0A1.57,1.57,0,0,1,4,12.746Z" fill="none" stroke="#111" stroke-linecap="round" stroke-linejoin="round" stroke-width="2"/></svg>