<svg xmlns="http://www.w3.org/2000/svg" width="24" height="24" viewBox="0 0 24 24"><rect width="24" height="24" fill="#e50025" opacity="0"/><path d="M9.209,17.559h-.4c-3.19,0-4.786-.8-4.786-4.786V8.785Q4.024,4,8.81,4h6.381q4.785,0,4.785,4.786v3.988q0,4.785-4.786,4.785h-.4a.8.8,0,0,0-.638.319l-1.2,1.595a1.133,1.133,0,0,1-1.914,0l-1.2-1.595A.9.9,0,0,0,9.209,17.559Z" fill="none" stroke="#111" stroke-linecap="round" stroke-linejoin="round" stroke-width="2"/><line transform="translate(11.998 11.178)" fill="none" stroke="#111" stroke-linecap="round" stroke-linejoin="round" stroke-width="2"/><line transform="translate(15.188 11.226)" fill="none" stroke="#111" stroke-linecap="round" stroke-linejoin="round" stroke-width="2"/><line transform="translate(8.808 11.178)" fill="none" stroke="#111" stroke-linecap="round" stroke-linejoin="round" stroke-width="2"/></svg>