<svg xmlns="http://www.w3.org/2000/svg" width="80" height="80" viewBox="0 0 80 80"><rect width="80" height="80" fill="#e50025" opacity="0"/><line y1="25.5" transform="translate(14.61 31.443)" fill="none" stroke="#1a1818" stroke-linecap="round" stroke-linejoin="round" stroke-width="2" stroke-dasharray="4 2"/><line y2="25.5" transform="translate(64.632 23.82)" fill="none" stroke="#1a1818" stroke-linecap="round" stroke-linejoin="round" stroke-width="2" stroke-dasharray="4 2"/><line x1="24.253" transform="translate(21.431 65.5)" fill="none" stroke="#1a1818" stroke-linecap="round" stroke-linejoin="round" stroke-width="2" stroke-dasharray="4 2"/><rect width="30.315" height="21" rx="6.031" transform="translate(4 4)" fill="none" stroke="#bb1614" stroke-linecap="round" stroke-linejoin="round" stroke-width="2"/><line x2="15.158" transform="translate(11.579 30.526)" fill="none" stroke="#bb1614" stroke-linecap="round" stroke-linejoin="round" stroke-width="2"/><line y2="5" transform="translate(19.158 25.238)" fill="none" stroke="#bb1614" stroke-linecap="round" stroke-linejoin="round" stroke-width="2"/><rect width="30.315" height="21" rx="6.031" transform="translate(45.685 49.75)" fill="none" stroke="#bb1614" stroke-linecap="round" stroke-linejoin="round" stroke-width="2"/><line x2="15.158" transform="translate(53.263 76)" fill="none" stroke="#bb1614" stroke-linecap="round" stroke-linejoin="round" stroke-width="2"/><line y2="5" transform="translate(60.842 70.75)" fill="none" stroke="#bb1614" stroke-linecap="round" stroke-linejoin="round" stroke-width="2"/><line x2="22.737" transform="translate(36.589 15.25)" fill="none" stroke="#1a1818" stroke-linecap="round" stroke-linejoin="round" stroke-width="2" stroke-dasharray="4 2"/><path d="M65.39,20.5h0a6,6,0,1,1,6.062-6A6.032,6.032,0,0,1,65.39,20.5Z" fill="none" stroke="#1a1818" stroke-linecap="round" stroke-linejoin="round" stroke-width="2"/><path d="M13.853,71.5h0a6,6,0,1,1,6.063-6A6.031,6.031,0,0,1,13.853,71.5Z" transform="translate(0 0.75)" fill="none" stroke="#1a1818" stroke-linecap="round" stroke-linejoin="round" stroke-width="2"/></svg>