<svg xmlns="http://www.w3.org/2000/svg" width="60" height="60" viewBox="0 0 60 60"><rect width="60" height="60" fill="#e50025" opacity="0"/><g transform="translate(-1 -1)"><path d="M51.851,19.637l2.81,2.378A6.641,6.641,0,0,1,57,27.086V52.6A4.368,4.368,0,0,1,52.666,57H9.334A4.368,4.368,0,0,1,5,52.6V27.086a6.641,6.641,0,0,1,2.339-5.071l3.1-2.619" fill="none" stroke="#111" stroke-miterlimit="10" stroke-width="2"/><path d="M5,27.917l23.225,18.61a4.468,4.468,0,0,0,5.548,0L57,27.917" transform="translate(0 1.507)" fill="none" stroke="#111" stroke-miterlimit="10" stroke-width="2"/><path d="M10.208,32.083V9.166A4.275,4.275,0,0,1,14.586,5H47.415a4.275,4.275,0,0,1,4.376,4.166V32.083" fill="none" stroke="#111" stroke-miterlimit="10" stroke-width="2"/><path d="M40.417,22.262c0-2.8-2.438-4.762-5.448-4.762A5.478,5.478,0,0,0,30,20.489,5.474,5.474,0,0,0,25.032,17.5c-3.009,0-5.448,1.967-5.448,4.762a6.766,6.766,0,0,0,1.362,3.571c2.821,3.839,8.366,8.333,9.054,8.333.792,0,6.2-4.519,8.9-8.333A9.969,9.969,0,0,0,40.417,22.262Z" transform="translate(1 0.75)" fill="none" stroke="#bb1614" stroke-linecap="round" stroke-linejoin="round" stroke-width="2"/></g></svg>