<svg xmlns="http://www.w3.org/2000/svg" width="24" height="24" viewBox="0 0 24 24"><rect width="24" height="24" fill="#e50025" opacity="0"/><path d="M20,21c0-3.356-1.748-6.283-5.944-7.478a.483.483,0,0,1-.045-.908A5.007,5.007,0,1,0,7.042,8.053a5.057,5.057,0,0,0,2.832,4.561c.5.243.485.79.051.908C5.739,14.726,4,17.711,4,21" fill="none" stroke="#050605" stroke-linecap="round" stroke-linejoin="round" stroke-width="2"/><path d="M12.913,13.9a2.771,2.771,0,0,0-1.828-.005l-1.622,5.06a.388.388,0,0,0,.154.446l1.812,1.308a1.079,1.079,0,0,0,1.249-.012L14.392,19.4a.386.386,0,0,0,.145-.44Z" fill="none" stroke="#050605" stroke-linecap="round" stroke-linejoin="round" stroke-width="2"/></svg>