<svg xmlns="http://www.w3.org/2000/svg" width="80" height="80" viewBox="0 0 80 80"><rect width="80" height="80" fill="#e50025" opacity="0"/><path d="M20.525,44.667H9.9a1.173,1.173,0,0,0-1.18,1.167V62.167A5.867,5.867,0,0,0,14.623,68H52.394" fill="none" stroke="#111" stroke-linecap="round" stroke-linejoin="round" stroke-width="2"/><path d="M61.836,58.667v-45.5A1.174,1.174,0,0,0,60.656,12H58.313a1.186,1.186,0,0,0-1.137.882,4.037,4.037,0,0,1-7.795,0A1.186,1.186,0,0,0,48.244,12H46.432a1.188,1.188,0,0,0-1.137.882,4.036,4.036,0,0,1-7.794,0A1.188,1.188,0,0,0,36.363,12H34.552a1.188,1.188,0,0,0-1.138.882,4.036,4.036,0,0,1-7.794,0A1.186,1.186,0,0,0,24.483,12H21.7a1.174,1.174,0,0,0-1.18,1.167v48.8A6.091,6.091,0,0,1,14.417,68" fill="none" stroke="#111" stroke-linecap="round" stroke-linejoin="round" stroke-width="2"/><rect width="28.328" height="28" rx="4.694" transform="translate(47.672 40)" fill="#fff" stroke="#bb1614" stroke-linecap="round" stroke-linejoin="round" stroke-width="2"/><line x2="4.721" transform="translate(52.393 52.25)" fill="none" stroke="#bb1614" stroke-linecap="round" stroke-linejoin="round" stroke-width="2"/><line y1="4.667" transform="translate(54.754 49.916)" fill="none" stroke="#bb1614" stroke-linecap="round" stroke-linejoin="round" stroke-width="2"/><line y1="3.3" x2="3.339" transform="translate(67.249 61.1)" fill="none" stroke="#bb1614" stroke-linecap="round" stroke-linejoin="round" stroke-width="2"/><line x1="3.339" y1="3.3" transform="translate(67.248 61.1)" fill="none" stroke="#bb1614" stroke-linecap="round" stroke-linejoin="round" stroke-width="2"/><line x2="4.721" transform="translate(66.557 52.25)" fill="none" stroke="#bb1614" stroke-linecap="round" stroke-linejoin="round" stroke-width="2"/><line x1="4.721" transform="translate(52.394 61.583)" fill="none" stroke="#bb1614" stroke-linecap="round" stroke-linejoin="round" stroke-width="2"/><line x1="4.721" transform="translate(52.394 63.917)" fill="none" stroke="#bb1614" stroke-linecap="round" stroke-linejoin="round" stroke-width="2"/><line x2="28.328" transform="translate(47.672 47)" fill="none" stroke="#bb1614" stroke-linecap="round" stroke-linejoin="round" stroke-width="2"/><line y2="21" transform="translate(61.836 47)" fill="none" stroke="#bb1614" stroke-linecap="round" stroke-linejoin="round" stroke-width="2"/><line x2="28.328" transform="translate(47.672 57.5)" fill="none" stroke="#bb1614" stroke-linecap="round" stroke-linejoin="round" stroke-width="2"/><line x2="23.607" transform="translate(29.967 29.321)" fill="none" stroke="#111" stroke-linecap="round" stroke-linejoin="round" stroke-width="2"/><line x2="16.525" transform="translate(29.967 39.755)" fill="none" stroke="#111" stroke-linecap="round" stroke-linejoin="round" stroke-width="2"/><line x2="11.063" transform="translate(29.967 50.321)" fill="none" stroke="#111" stroke-linecap="round" stroke-linejoin="round" stroke-width="2"/><path d="M20.525,33.111H13.443A9.389,9.389,0,0,0,4,42.444v4.667a9.311,9.311,0,0,0,4.672,8.056" fill="none" stroke="#111" stroke-linecap="round" stroke-linejoin="round" stroke-width="2"/></svg>