<svg xmlns="http://www.w3.org/2000/svg" width="60" height="60" viewBox="0 0 60 60"><rect width="60" height="60" fill="#e50025" opacity="0"/><line y2="33.667" transform="translate(4 11.675)" fill="none" stroke="#111" stroke-linecap="round" stroke-linejoin="round" stroke-width="2"/><ellipse cx="18.72" cy="7.675" rx="18.72" ry="7.675" transform="translate(4 4)" fill="none" stroke="#111" stroke-linecap="round" stroke-linejoin="round" stroke-width="2"/><path d="M24.215,27.595q-.74.024-1.5.024C12.381,27.619,4,24.183,4,19.945" fill="none" stroke="#111" stroke-linecap="round" stroke-linejoin="round" stroke-width="2"/><path d="M27.757,52.527c-.683.061-3.055.093-5.038.053C12.381,52.58,4,49.144,4,44.9" fill="none" stroke="#111" stroke-linecap="round" stroke-linejoin="round" stroke-width="2"/><path d="M20.771,35.849C11.348,35.449,4,32.184,4,28.216" fill="none" stroke="#111" stroke-linecap="round" stroke-linejoin="round" stroke-width="2"/><path d="M21.452,44.134C11.843,43.809,4,40.509,4,36.486" fill="none" stroke="#111" stroke-linecap="round" stroke-linejoin="round" stroke-width="2"/><line y2="8.707" transform="translate(41.439 11.675)" fill="none" stroke="#111" stroke-linecap="round" stroke-linejoin="round" stroke-width="2"/><path d="M29.842,33.269l3.593,9.421a.842.842,0,0,0,1.6-.07l2.6-9.133a.842.842,0,0,1,1.615-.015l2.774,9.089a.842.842,0,0,0,1.6.026L46.8,33.269" fill="none" stroke="#bb1614" stroke-linecap="round" stroke-linejoin="round" stroke-width="2"/><line x2="20.206" transform="translate(28.217 37.613)" fill="none" stroke="#bb1614" stroke-linecap="round" stroke-linejoin="round" stroke-width="2"/><circle cx="17.68" cy="17.68" r="17.68" transform="translate(20.641 20.641)" fill="none" stroke="#bb1614" stroke-linecap="round" stroke-linejoin="round" stroke-width="2"/></svg>