<svg xmlns="http://www.w3.org/2000/svg" width="60" height="60" viewBox="0 0 60 60"><rect width="60" height="60" fill="#e50025" opacity="0"/><path d="M46.546,15.714a4.728,4.728,0,1,1-4.727-4.762A4.745,4.745,0,0,1,46.546,15.714Z" fill="none" stroke="#bb1614" stroke-linecap="round" stroke-linejoin="round" stroke-width="2"/><line y1="5.952" transform="translate(41.818 5)" fill="none" stroke="#bb1614" stroke-linecap="round" stroke-linejoin="round" stroke-width="2"/><line y1="5.952" transform="translate(41.818 20.477)" fill="none" stroke="#bb1614" stroke-linecap="round" stroke-linejoin="round" stroke-width="2"/><line x1="5.909" transform="translate(31.182 15.715)" fill="none" stroke="#bb1614" stroke-linecap="round" stroke-linejoin="round" stroke-width="2"/><line x1="5.909" transform="translate(46.545 15.715)" fill="none" stroke="#bb1614" stroke-linecap="round" stroke-linejoin="round" stroke-width="2"/><line x1="4.178" y1="4.209" transform="translate(34.297 8.139)" fill="none" stroke="#bb1614" stroke-linecap="round" stroke-linejoin="round" stroke-width="2"/><line x1="4.178" y1="4.209" transform="translate(45.162 19.082)" fill="none" stroke="#bb1614" stroke-linecap="round" stroke-linejoin="round" stroke-width="2"/><line x1="4.178" y2="4.209" transform="translate(34.297 19.082)" fill="none" stroke="#bb1614" stroke-linecap="round" stroke-linejoin="round" stroke-width="2"/><line x1="4.178" y2="4.209" transform="translate(45.162 8.139)" fill="none" stroke="#bb1614" stroke-linecap="round" stroke-linejoin="round" stroke-width="2"/><path d="M26.821,55a55.451,55.451,0,0,0,2-15.476c0-22.786-10.636-29.762-10.636-29.762V55Z" fill="none" stroke="#111" stroke-linecap="round" stroke-linejoin="round" stroke-width="2"/><path d="M18.182,9.762S7.546,16.738,7.546,39.524A55.451,55.451,0,0,0,9.543,55h8.639Z" fill="none" stroke="#111" stroke-linecap="round" stroke-linejoin="round" stroke-width="2"/><line x2="52" transform="translate(4 55)" fill="none" stroke="#111" stroke-linecap="round" stroke-linejoin="round" stroke-width="2"/></svg>